<svg xmlns="http://www.w3.org/2000/svg" id="canvas" viewBox="661.310 209.112 269.663 212.231"><path d="M 685.17,231.16 C 684.13 232.57, 684.28 233.93, 684.39 237.83 C 684.51 241.72, 685.23 244.16, 685.75 250.64 C 686.27 257.11, 686.64 261.48, 687.00 270.22 C 687.36 278.95, 687.47 284.16, 687.54 294.30 C 687.61 304.44, 687.52 310.24, 687.37 320.92 C 687.22 331.61, 687.09 337.46, 686.80 347.75 C 686.52 358.03, 686.33 363.37, 685.94 372.37 C 685.54 381.37, 685.36 385.80, 684.82 392.74 C 684.28 399.69, 683.64 402.69, 683.24 407.11 C 682.83 411.52, 682.64 412.70, 682.79 414.82 C 682.93 416.93, 683.34 417.04, 683.96 417.70 C 684.57 418.35, 685.03 418.55, 685.88 418.10 C 686.73 417.65, 687.58 417.56, 688.21 415.44 C 688.85 413.32, 688.85 412.00, 689.04 407.50 C 689.23 403.00, 689.05 399.94, 689.16 392.94 C 689.26 385.94, 689.36 381.51, 689.55 372.49 C 689.75 363.47, 689.90 358.13, 690.13 347.83 C 690.37 337.53, 690.50 331.69, 690.72 320.98 C 690.95 310.28, 691.09 304.49, 691.25 294.32 C 691.41 284.15, 691.47 278.92, 691.54 270.14 C 691.60 261.36, 691.59 256.95, 691.58 250.40 C 691.57 243.84, 691.90 241.28, 691.50 237.36 C 691.10 233.44, 690.86 232.03, 689.59 230.79 C 688.33 229.55, 686.21 229.76, 685.17 231.16" style="stroke: black; fill: black;"/><path d="M 667.65,231.76 C 669.41 232.03, 670.59 231.10, 673.11 229.63 C 675.63 228.17, 676.56 226.42, 680.27 224.43 C 683.98 222.44, 686.52 220.95, 691.68 219.68 C 696.84 218.42, 700.11 218.01, 706.08 218.11 C 712.05 218.21, 715.59 218.63, 721.51 220.18 C 727.44 221.73, 730.64 222.95, 735.71 225.85 C 740.78 228.76, 743.32 230.68, 746.87 234.69 C 750.41 238.70, 751.88 241.05, 753.45 245.90 C 755.02 250.76, 755.32 253.48, 754.71 258.98 C 754.09 264.48, 753.18 267.59, 750.37 273.41 C 747.56 279.24, 745.35 282.46, 740.66 288.09 C 735.96 293.72, 732.73 296.69, 726.89 301.56 C 721.05 306.43, 717.43 308.84, 711.45 312.43 C 705.47 316.02, 702.11 317.56, 697.00 319.52 C 691.88 321.47, 689.26 321.36, 685.86 322.22 C 682.47 323.08, 681.67 323.23, 680.01 323.81 C 678.35 324.39, 678.12 324.38, 677.55 325.11 C 676.99 325.83, 676.62 326.51, 677.18 327.41 C 677.75 328.31, 678.27 329.26, 680.36 329.60 C 682.46 329.95, 683.90 330.15, 687.66 329.15 C 691.43 328.15, 693.93 327.12, 699.19 324.59 C 704.45 322.06, 707.85 320.41, 713.97 316.50 C 720.10 312.59, 723.76 310.15, 729.82 305.07 C 735.87 299.99, 739.24 296.99, 744.24 291.10 C 749.24 285.21, 751.69 281.91, 754.83 275.61 C 757.97 269.30, 759.18 265.86, 759.94 259.59 C 760.69 253.32, 760.42 249.95, 758.62 244.25 C 756.81 238.56, 754.97 235.72, 750.92 231.12 C 746.87 226.51, 743.97 224.46, 738.37 221.23 C 732.77 218.00, 729.33 216.75, 722.92 214.97 C 716.51 213.18, 712.82 212.69, 706.31 212.30 C 699.79 211.92, 696.24 212.09, 690.35 213.04 C 684.46 213.98, 681.43 215.21, 676.87 217.02 C 672.31 218.83, 670.06 219.85, 667.55 222.09 C 665.04 224.34, 664.29 226.31, 664.31 228.25 C 664.33 230.18, 665.89 231.48, 667.65 231.76" style="stroke: black; fill: black;"/><path d="M 849.66,240.20 C 849.18 238.73, 848.27 237.51, 846.06 237.00 C 843.85 236.49, 841.84 236.14, 838.60 237.65 C 835.36 239.16, 833.68 240.95, 829.86 244.55 C 826.03 248.15, 823.74 250.36, 819.49 255.66 C 815.23 260.97, 812.67 264.26, 808.58 271.07 C 804.48 277.88, 802.19 281.91, 799.03 289.71 C 795.87 297.51, 794.32 301.99, 792.76 310.09 C 791.20 318.19, 790.75 322.61, 791.22 330.23 C 791.70 337.85, 792.54 341.74, 795.15 348.18 C 797.75 354.62, 799.83 357.71, 804.25 362.42 C 808.66 367.12, 811.67 369.07, 817.22 371.70 C 822.77 374.32, 826.16 375.05, 832.00 375.53 C 837.83 376.01, 841.11 375.68, 846.40 374.10 C 851.69 372.52, 854.43 371.02, 858.45 367.63 C 862.46 364.24, 864.20 361.77, 866.47 357.14 C 868.73 352.50, 869.32 349.61, 869.79 344.45 C 870.26 339.29, 869.90 336.36, 868.80 331.34 C 867.71 326.31, 866.50 323.70, 864.32 319.35 C 862.15 315.00, 860.42 313.03, 857.93 309.57 C 855.44 306.12, 854.21 304.00, 851.87 302.08 C 849.54 300.15, 847.81 299.88, 846.25 299.96 C 844.70 300.04, 843.88 301.25, 844.10 302.46 C 844.32 303.67, 844.97 305.50, 847.34 305.99 C 849.71 306.48, 851.71 305.49, 855.95 304.90 C 860.19 304.30, 863.12 303.71, 868.53 303.00 C 873.94 302.28, 877.24 301.86, 882.99 301.33 C 888.73 300.79, 892.00 300.52, 897.28 300.31 C 902.55 300.10, 905.34 300.03, 909.36 300.29 C 913.39 300.55, 915.12 301.41, 917.40 301.61 C 919.68 301.81, 920.35 301.23, 920.77 301.31 C 921.19 301.39, 920.51 301.08, 919.51 302.01 C 918.51 302.94, 917.32 303.59, 915.77 305.97 C 914.21 308.36, 913.46 310.41, 911.72 313.92 C 909.98 317.44, 908.79 319.55, 907.06 323.54 C 905.34 327.54, 904.23 329.75, 903.10 333.91 C 901.97 338.06, 901.40 340.27, 901.41 344.30 C 901.41 348.34, 901.64 350.53, 903.11 354.09 C 904.58 357.65, 905.84 359.96, 908.75 362.11 C 911.66 364.26, 915.31 365.33, 917.65 364.83 C 920.00 364.33, 920.99 361.65, 920.49 359.61 C 920.00 357.57, 916.93 356.46, 915.18 354.61 C 913.43 352.77, 912.70 352.44, 911.74 350.37 C 910.78 348.29, 910.41 347.05, 910.36 344.23 C 910.30 341.40, 910.50 339.60, 911.47 336.24 C 912.43 332.88, 913.37 330.84, 915.19 327.41 C 917.00 323.98, 918.37 322.22, 920.53 319.08 C 922.68 315.93, 924.47 314.73, 925.95 311.71 C 927.44 308.68, 928.07 306.90, 927.96 303.94 C 927.85 300.99, 927.18 299.19, 925.40 296.94 C 923.62 294.68, 922.25 293.46, 919.05 292.66 C 915.84 291.85, 913.82 292.67, 909.39 292.90 C 904.97 293.13, 902.30 293.41, 896.92 293.80 C 891.54 294.18, 888.28 294.48, 882.49 294.82 C 876.71 295.15, 873.41 295.42, 868.00 295.47 C 862.59 295.53, 859.75 295.23, 855.44 295.07 C 851.14 294.92, 849.17 293.82, 846.48 294.70 C 843.79 295.57, 842.96 297.39, 841.97 299.44 C 840.99 301.49, 840.97 302.88, 841.56 304.97 C 842.14 307.05, 842.87 307.86, 844.88 309.85 C 846.89 311.83, 849.01 312.30, 851.60 314.89 C 854.20 317.48, 855.77 319.21, 857.85 322.81 C 859.93 326.41, 860.97 328.68, 862.00 332.90 C 863.04 337.12, 863.31 339.62, 863.01 343.90 C 862.71 348.17, 862.23 350.50, 860.48 354.28 C 858.73 358.06, 857.44 359.98, 854.27 362.78 C 851.09 365.57, 848.97 366.86, 844.60 368.26 C 840.23 369.66, 837.43 370.08, 832.40 369.79 C 827.37 369.50, 824.36 368.99, 819.45 366.83 C 814.53 364.66, 811.83 363.07, 807.82 358.99 C 803.81 354.91, 801.84 352.24, 799.38 346.43 C 796.93 340.62, 796.03 337.05, 795.53 329.94 C 795.03 322.84, 795.38 318.60, 796.89 310.89 C 798.39 303.18, 799.89 298.82, 803.05 291.38 C 806.21 283.93, 808.51 280.02, 812.68 273.65 C 816.86 267.29, 819.53 264.12, 823.93 259.57 C 828.34 255.02, 830.85 253.16, 834.71 250.88 C 838.57 248.60, 840.81 249.14, 843.22 248.17 C 845.63 247.20, 845.71 246.80, 846.76 246.04 C 847.81 245.27, 847.89 245.53, 848.47 244.36 C 849.05 243.19, 850.15 241.67, 849.66 240.20" style="stroke: black; fill: black;"/></svg>