<svg xmlns="http://www.w3.org/2000/svg" id="canvas" viewBox="335.197 236.311 785.786 190.143"><path d="M 352.61,261.38 C 351.21 262.31, 350.79 263.33, 350.27 265.44 C 349.76 267.54, 349.73 268.82, 350.04 271.91 C 350.34 275.01, 351.17 276.99, 351.79 280.92 C 352.41 284.85, 352.67 286.99, 353.14 291.57 C 353.61 296.15, 353.75 298.69, 354.13 303.82 C 354.50 308.95, 354.64 311.70, 355.02 317.21 C 355.40 322.73, 355.60 325.64, 356.03 331.39 C 356.46 337.13, 356.70 340.12, 357.17 345.94 C 357.64 351.76, 357.91 354.74, 358.38 360.48 C 358.86 366.22, 359.11 369.14, 359.53 374.65 C 359.95 380.15, 360.14 382.91, 360.48 388.02 C 360.83 393.13, 361.02 395.67, 361.24 400.18 C 361.46 404.70, 361.36 406.92, 361.57 410.58 C 361.78 414.25, 361.61 416.05, 362.31 418.51 C 363.00 420.97, 363.80 422.05, 365.05 422.88 C 366.29 423.71, 367.42 423.65, 368.55 422.64 C 369.67 421.63, 370.38 420.39, 370.66 417.82 C 370.94 415.24, 370.43 413.44, 369.95 409.78 C 369.46 406.12, 368.87 403.98, 368.24 399.52 C 367.60 395.05, 367.34 392.54, 366.78 387.46 C 366.22 382.38, 365.97 379.63, 365.44 374.13 C 364.91 368.64, 364.63 365.72, 364.13 359.99 C 363.62 354.26, 363.35 351.29, 362.92 345.49 C 362.48 339.69, 362.27 336.72, 361.94 331.00 C 361.62 325.27, 361.48 322.38, 361.28 316.89 C 361.09 311.39, 361.02 308.66, 360.96 303.53 C 360.90 298.39, 360.89 295.86, 360.97 291.23 C 361.04 286.61, 361.16 284.44, 361.35 280.40 C 361.55 276.37, 362.09 274.25, 361.94 271.06 C 361.79 267.86, 361.52 266.47, 360.60 264.42 C 359.67 262.37, 358.91 261.41, 357.31 260.80 C 355.71 260.19, 354.02 260.45, 352.61 261.38" style="stroke: black; fill: black;"/><path d="M 342.66,259.97 C 344.28 260.30, 345.06 259.53, 346.74 258.78 C 348.42 258.03, 349.03 257.67, 351.06 256.22 C 353.09 254.77, 354.00 253.11, 356.90 251.54 C 359.79 249.98, 361.63 249.36, 365.54 248.39 C 369.45 247.42, 371.87 247.03, 376.44 246.68 C 381.01 246.34, 383.57 246.30, 388.40 246.67 C 393.23 247.05, 395.86 247.38, 400.58 248.55 C 405.29 249.72, 407.76 250.56, 411.98 252.50 C 416.20 254.45, 418.33 255.69, 421.69 258.27 C 425.06 260.84, 426.54 262.32, 428.81 265.36 C 431.08 268.39, 431.90 270.03, 433.03 273.43 C 434.16 276.84, 434.49 278.63, 434.47 282.39 C 434.45 286.14, 434.12 288.19, 432.92 292.22 C 431.72 296.24, 430.82 298.41, 428.49 302.52 C 426.15 306.62, 424.63 308.83, 421.26 312.74 C 417.89 316.65, 415.79 318.67, 411.65 322.07 C 407.51 325.47, 405.13 327.06, 400.57 329.74 C 396.01 332.42, 393.43 333.66, 388.85 335.47 C 384.28 337.28, 381.86 337.95, 377.68 338.79 C 373.49 339.63, 371.27 339.76, 367.92 339.65 C 364.56 339.54, 363.18 338.75, 360.90 338.24 C 358.63 337.73, 357.92 337.36, 356.54 337.10 C 355.17 336.84, 354.86 337.00, 354.01 336.95 C 353.15 336.89, 353.13 336.59, 352.27 336.83 C 351.40 337.07, 350.22 337.26, 349.69 338.15 C 349.16 339.04, 349.04 339.87, 349.61 341.27 C 350.17 342.66, 350.64 343.74, 352.52 345.12 C 354.40 346.50, 355.84 347.63, 359.00 348.16 C 362.17 348.70, 364.29 348.30, 368.36 347.79 C 372.42 347.28, 374.73 346.89, 379.32 345.61 C 383.91 344.33, 386.43 343.49, 391.31 341.37 C 396.18 339.25, 398.86 337.92, 403.70 335.01 C 408.54 332.11, 411.06 330.45, 415.53 326.84 C 420.00 323.23, 422.30 321.14, 426.05 316.96 C 429.81 312.78, 431.57 310.47, 434.32 305.95 C 437.06 301.43, 438.26 299.06, 439.79 294.36 C 441.31 289.66, 441.88 287.13, 441.94 282.46 C 442.01 277.80, 441.58 275.34, 440.11 271.04 C 438.63 266.74, 437.43 264.62, 434.57 260.95 C 431.72 257.28, 429.81 255.61, 425.85 252.70 C 421.88 249.79, 419.48 248.52, 414.75 246.40 C 410.02 244.28, 407.34 243.42, 402.20 242.11 C 397.05 240.79, 394.24 240.40, 389.03 239.84 C 383.81 239.29, 381.12 239.27, 376.13 239.34 C 371.13 239.40, 368.65 239.60, 364.06 240.16 C 359.47 240.73, 357.19 240.98, 353.18 242.15 C 349.16 243.33, 346.77 244.11, 343.97 246.03 C 341.16 247.95, 340.23 249.53, 339.16 251.75 C 338.09 253.96, 337.92 255.46, 338.61 257.10 C 339.31 258.75, 341.03 259.63, 342.66 259.97" style="stroke: black; fill: black;"/><path d="M 551.32,275.96 C 551.72 274.19, 551.24 272.81, 550.05 271.12 C 548.86 269.43, 547.63 268.66, 545.36 267.50 C 543.09 266.34, 541.58 265.89, 538.71 265.34 C 535.84 264.78, 534.21 264.56, 530.99 264.72 C 527.78 264.89, 526.03 265.28, 522.63 266.16 C 519.23 267.05, 517.47 267.65, 514.00 269.15 C 510.53 270.64, 508.76 271.55, 505.28 273.62 C 501.81 275.68, 500.00 276.83, 496.62 279.45 C 493.25 282.08, 491.54 283.55, 488.42 286.75 C 485.29 289.94, 483.71 291.73, 481.00 295.42 C 478.30 299.12, 476.99 301.14, 474.91 305.22 C 472.83 309.31, 471.94 311.51, 470.61 315.86 C 469.28 320.21, 468.72 322.51, 468.27 326.96 C 467.81 331.40, 467.74 333.73, 468.32 338.08 C 468.91 342.44, 469.48 344.71, 471.18 348.73 C 472.88 352.75, 474.07 354.75, 476.81 358.19 C 479.55 361.64, 481.28 363.25, 484.90 365.95 C 488.52 368.65, 490.67 369.85, 494.92 371.69 C 499.17 373.53, 501.58 374.22, 506.15 375.14 C 510.71 376.06, 513.15 376.26, 517.75 376.28 C 522.35 376.30, 524.76 376.06, 529.15 375.23 C 533.55 374.40, 535.79 373.74, 539.72 372.14 C 543.66 370.55, 545.51 369.52, 548.81 367.25 C 552.11 364.98, 553.69 363.66, 556.22 360.78 C 558.74 357.91, 559.82 356.19, 561.44 352.86 C 563.06 349.53, 563.58 347.66, 564.32 344.13 C 565.06 340.60, 565.14 338.74, 565.13 335.21 C 565.13 331.68, 564.83 329.85, 564.28 326.50 C 563.74 323.14, 563.25 321.49, 562.42 318.44 C 561.59 315.38, 561.36 313.74, 560.12 311.23 C 558.88 308.72, 558.17 307.11, 556.22 305.89 C 554.27 304.67, 552.45 304.55, 550.36 305.13 C 548.27 305.71, 546.99 306.79, 545.78 308.79 C 544.58 310.79, 543.91 312.30, 544.33 315.14 C 544.76 317.98, 546.34 319.59, 547.92 322.98 C 549.49 326.36, 550.47 328.31, 552.19 332.07 C 553.92 335.83, 554.73 337.87, 556.54 341.78 C 558.35 345.69, 559.29 347.74, 561.25 351.62 C 563.21 355.51, 564.25 357.51, 566.34 361.20 C 568.42 364.89, 569.60 367.03, 571.67 370.07 C 573.74 373.11, 574.64 374.68, 576.69 376.38 C 578.75 378.08, 580.32 378.62, 581.95 378.56 C 583.57 378.51, 584.48 377.65, 584.82 376.10 C 585.17 374.55, 584.79 373.10, 583.68 370.82 C 582.57 368.54, 581.32 367.47, 579.26 364.69 C 577.21 361.90, 575.59 360.23, 573.41 356.90 C 571.22 353.57, 570.21 351.71, 568.36 348.04 C 566.51 344.36, 565.64 342.37, 564.14 338.54 C 562.64 334.70, 561.93 332.68, 560.88 328.88 C 559.83 325.07, 559.46 322.94, 558.88 319.51 C 558.30 316.08, 558.84 314.07, 557.97 311.72 C 557.09 309.37, 556.05 308.64, 554.52 307.78 C 552.98 306.92, 551.66 306.82, 550.29 307.42 C 548.92 308.03, 547.93 309.06, 547.67 310.78 C 547.40 312.51, 548.16 313.82, 548.96 316.05 C 549.77 318.28, 550.73 319.43, 551.71 321.92 C 552.68 324.41, 553.20 325.81, 553.82 328.51 C 554.44 331.21, 554.68 332.68, 554.81 335.43 C 554.94 338.18, 554.89 339.59, 554.46 342.27 C 554.02 344.94, 553.69 346.30, 552.64 348.83 C 551.58 351.36, 550.95 352.62, 549.17 354.90 C 547.39 357.18, 546.27 358.29, 543.74 360.23 C 541.20 362.17, 539.73 363.15, 536.50 364.61 C 533.28 366.07, 531.36 366.73, 527.61 367.53 C 523.86 368.34, 521.74 368.60, 517.75 368.61 C 513.76 368.63, 511.61 368.44, 507.67 367.63 C 503.73 366.82, 501.64 366.17, 498.04 364.57 C 494.43 362.97, 492.64 361.90, 489.66 359.62 C 486.67 357.35, 485.31 356.01, 483.10 353.20 C 480.88 350.40, 479.96 348.83, 478.58 345.59 C 477.20 342.35, 476.70 340.57, 476.19 337.00 C 475.68 333.42, 475.67 331.50, 476.02 327.72 C 476.37 323.94, 476.81 321.88, 477.95 318.08 C 479.09 314.28, 479.86 312.31, 481.71 308.70 C 483.57 305.10, 484.75 303.30, 487.22 300.05 C 489.69 296.80, 491.17 295.20, 494.06 292.44 C 496.94 289.67, 498.53 288.42, 501.64 286.25 C 504.76 284.08, 506.46 283.15, 509.63 281.60 C 512.79 280.05, 514.44 279.41, 517.46 278.50 C 520.48 277.59, 522.00 277.36, 524.72 277.06 C 527.45 276.77, 528.83 276.92, 531.10 277.04 C 533.38 277.16, 534.30 277.21, 536.11 277.65 C 537.93 278.08, 538.62 278.67, 540.18 279.21 C 541.74 279.75, 542.34 280.19, 543.91 280.34 C 545.48 280.48, 546.54 280.82, 548.02 279.94 C 549.50 279.07, 550.91 277.72, 551.32 275.96" style="stroke: black; fill: black;"/><path d="M 617.46,318.52 C 616.00 318.97, 615.50 319.53, 614.57 321.00 C 613.64 322.46, 613.07 323.50, 612.82 325.85 C 612.57 328.20, 612.91 329.79, 613.32 332.76 C 613.73 335.72, 614.38 337.44, 614.86 340.66 C 615.35 343.88, 615.50 345.61, 615.73 348.84 C 615.97 352.08, 615.88 353.81, 616.04 356.83 C 616.19 359.85, 616.15 361.45, 616.50 363.94 C 616.84 366.43, 616.79 367.71, 617.75 369.28 C 618.71 370.84, 619.59 371.47, 621.29 371.76 C 622.98 372.04, 624.61 371.74, 626.23 370.71 C 627.85 369.69, 628.75 368.66, 629.38 366.62 C 630.02 364.59, 629.92 363.20, 629.42 360.55 C 628.91 357.89, 627.58 356.35, 626.85 353.35 C 626.12 350.35, 625.97 348.66, 625.77 345.55 C 625.57 342.43, 625.58 340.80, 625.85 337.79 C 626.11 334.77, 626.36 333.19, 627.10 330.46 C 627.85 327.73, 628.38 326.41, 629.57 324.14 C 630.76 321.86, 631.48 320.80, 633.06 319.07 C 634.64 317.34, 635.57 316.65, 637.47 315.47 C 639.37 314.29, 640.45 313.80, 642.54 313.18 C 644.63 312.55, 645.75 312.38, 647.92 312.35 C 650.08 312.31, 651.21 312.40, 653.37 313.00 C 655.52 313.60, 656.62 314.00, 658.71 315.33 C 660.79 316.67, 661.90 317.52, 663.78 319.69 C 665.67 321.86, 666.60 323.26, 668.13 326.20 C 669.66 329.13, 670.39 330.90, 671.44 334.36 C 672.49 337.81, 672.87 339.82, 673.38 343.45 C 673.89 347.08, 673.97 349.12, 673.98 352.52 C 673.99 355.92, 673.30 357.68, 673.41 360.43 C 673.52 363.18, 673.59 364.50, 674.54 366.28 C 675.50 368.06, 676.38 368.80, 678.19 369.33 C 679.99 369.86, 681.63 369.82, 683.56 368.95 C 685.48 368.07, 686.75 367.17, 687.81 364.95 C 688.86 362.73, 688.49 360.97, 688.82 357.86 C 689.15 354.75, 688.85 352.78, 689.46 349.39 C 690.07 346.00, 690.65 344.21, 691.87 340.91 C 693.08 337.60, 693.86 335.88, 695.53 332.84 C 697.19 329.81, 698.20 328.28, 700.20 325.75 C 702.19 323.21, 703.38 322.00, 705.49 320.18 C 707.61 318.36, 708.81 317.77, 710.75 316.66 C 712.69 315.54, 713.59 315.05, 715.20 314.61 C 716.82 314.16, 717.50 314.10, 718.83 314.44 C 720.16 314.79, 720.65 315.18, 721.87 316.33 C 723.09 317.47, 723.61 318.18, 724.93 320.18 C 726.25 322.18, 727.16 323.41, 728.48 326.33 C 729.79 329.24, 730.45 331.13, 731.50 334.75 C 732.55 338.37, 732.94 340.46, 733.73 344.43 C 734.52 348.39, 734.80 350.59, 735.45 354.57 C 736.10 358.54, 736.35 360.62, 736.96 364.32 C 737.58 368.01, 737.51 370.16, 738.51 373.04 C 739.52 375.91, 740.57 377.09, 742.00 378.68 C 743.44 380.27, 744.33 380.81, 745.67 380.99 C 747.01 381.17, 747.92 380.65, 748.69 379.60 C 749.45 378.54, 749.47 377.66, 749.50 375.71 C 749.52 373.75, 749.53 372.51, 748.80 369.83 C 748.08 367.14, 746.87 365.63, 745.88 362.28 C 744.88 358.93, 744.57 356.96, 743.82 353.08 C 743.07 349.20, 742.83 346.98, 742.13 342.88 C 741.43 338.77, 741.17 336.59, 740.33 332.57 C 739.48 328.55, 739.09 326.47, 737.92 322.77 C 736.74 319.08, 736.33 317.11, 734.46 314.11 C 732.60 311.11, 731.28 309.71, 728.61 307.79 C 725.94 305.86, 724.21 305.17, 721.10 304.50 C 718.00 303.83, 716.25 303.87, 713.08 304.43 C 709.91 304.98, 708.15 305.57, 705.26 307.28 C 702.38 308.99, 701.15 310.40, 698.64 312.98 C 696.13 315.55, 694.94 317.06, 692.72 320.16 C 690.51 323.26, 689.47 325.02, 687.58 328.46 C 685.68 331.90, 684.85 333.77, 683.23 337.35 C 681.61 340.94, 680.93 342.89, 679.47 346.39 C 678.01 349.90, 677.03 351.77, 675.92 354.89 C 674.82 358.01, 673.88 359.59, 673.95 361.99 C 674.01 364.39, 674.94 365.62, 676.26 366.88 C 677.58 368.15, 679.05 368.50, 680.54 368.31 C 682.03 368.13, 682.89 367.60, 683.72 365.96 C 684.56 364.32, 684.77 362.94, 684.72 360.11 C 684.68 357.28, 684.00 355.43, 683.49 351.82 C 682.98 348.21, 682.88 346.05, 682.17 342.06 C 681.47 338.06, 681.12 335.84, 679.98 331.85 C 678.85 327.86, 678.19 325.78, 676.49 322.11 C 674.79 318.44, 673.85 316.56, 671.50 313.47 C 669.15 310.39, 667.72 308.90, 664.75 306.70 C 661.79 304.50, 660.04 303.60, 656.67 302.46 C 653.29 301.33, 651.38 301.05, 647.89 301.03 C 644.40 301.01, 642.52 301.33, 639.22 302.36 C 635.92 303.38, 634.25 304.23, 631.39 306.16 C 628.53 308.09, 627.15 309.34, 624.91 312.00 C 622.68 314.66, 621.74 316.29, 620.21 319.46 C 618.68 322.63, 618.14 324.40, 617.25 327.86 C 616.36 331.32, 616.19 333.20, 615.78 336.75 C 615.37 340.29, 615.38 342.07, 615.20 345.58 C 615.02 349.08, 615.11 350.89, 614.88 354.27 C 614.64 357.65, 613.82 359.63, 614.00 362.49 C 614.19 365.35, 614.62 366.76, 615.81 368.58 C 617.00 370.40, 618.13 371.05, 619.97 371.59 C 621.81 372.14, 623.43 372.01, 625.01 371.31 C 626.59 370.62, 627.28 369.83, 627.87 368.14 C 628.46 366.44, 628.09 365.27, 627.96 362.84 C 627.83 360.41, 627.51 358.92, 627.22 355.98 C 626.92 353.05, 626.65 351.37, 626.48 348.16 C 626.30 344.96, 626.26 343.22, 626.35 339.98 C 626.45 336.73, 626.90 334.91, 626.96 331.95 C 627.02 328.98, 627.12 327.36, 626.65 325.15 C 626.17 322.95, 625.51 322.20, 624.56 320.92 C 623.61 319.63, 623.31 319.21, 621.89 318.73 C 620.47 318.25, 618.92 318.07, 617.46 318.52" style="stroke: black; fill: black;"/><path d="M 766.95,251.88 C 765.56 252.55, 765.16 253.20, 764.40 254.86 C 763.65 256.52, 763.05 257.58, 763.17 260.18 C 763.29 262.79, 764.24 264.43, 765.00 267.89 C 765.76 271.34, 766.29 273.37, 766.95 277.46 C 767.62 281.54, 767.84 283.81, 768.33 288.32 C 768.82 292.83, 769.01 295.24, 769.40 300.00 C 769.79 304.77, 769.95 307.28, 770.29 312.15 C 770.62 317.01, 770.81 319.57, 771.09 324.33 C 771.38 329.08, 771.52 331.52, 771.71 335.93 C 771.91 340.33, 772.08 342.55, 772.07 346.33 C 772.06 350.12, 771.35 352.02, 771.67 354.85 C 771.98 357.69, 772.35 358.92, 773.63 360.52 C 774.91 362.11, 776.67 362.78, 778.07 362.82 C 779.46 362.86, 780.80 361.44, 780.62 360.73 C 780.44 360.02, 777.67 359.21, 777.16 359.26 C 776.66 359.31, 777.26 360.96, 778.09 360.99 C 778.92 361.03, 780.46 360.84, 781.31 359.43 C 782.17 358.03, 782.53 356.72, 782.38 353.95 C 782.22 351.19, 781.17 349.34, 780.52 345.62 C 779.88 341.90, 779.64 339.71, 779.15 335.35 C 778.67 330.99, 778.50 328.57, 778.11 323.83 C 777.73 319.10, 777.54 316.55, 777.24 311.69 C 776.93 306.83, 776.81 304.32, 776.58 299.54 C 776.35 294.76, 776.24 292.34, 776.10 287.78 C 775.96 283.23, 775.89 280.92, 775.90 276.75 C 775.92 272.58, 776.01 270.49, 776.17 266.93 C 776.32 263.37, 777.05 261.54, 776.68 258.93 C 776.32 256.32, 775.41 255.37, 774.34 253.89 C 773.28 252.41, 772.85 251.93, 771.37 251.53 C 769.89 251.13, 768.34 251.22, 766.95 251.88" style="stroke: black; fill: black;"/><path d="M 775.35,310.89 C 777.11 311.42, 778.58 311.04, 780.95 309.89 C 783.32 308.75, 784.18 307.07, 787.21 305.18 C 790.24 303.28, 792.19 301.96, 796.10 300.41 C 800.02 298.86, 802.29 298.23, 806.77 297.42 C 811.24 296.61, 813.79 296.39, 818.48 296.35 C 823.18 296.31, 825.72 296.46, 830.23 297.22 C 834.74 297.99, 837.04 298.61, 841.04 300.18 C 845.04 301.75, 847.01 302.86, 850.24 305.06 C 853.47 307.26, 854.94 308.61, 857.19 311.18 C 859.44 313.75, 860.29 315.21, 861.50 317.93 C 862.71 320.65, 863.00 322.09, 863.25 324.77 C 863.51 327.45, 863.39 328.73, 862.76 331.33 C 862.13 333.93, 861.64 335.25, 860.11 337.77 C 858.58 340.29, 857.60 341.62, 855.12 343.93 C 852.64 346.24, 851.09 347.35, 847.71 349.32 C 844.33 351.28, 842.30 352.25, 838.21 353.74 C 834.13 355.24, 831.80 355.90, 827.29 356.81 C 822.78 357.71, 820.29 357.96, 815.67 358.27 C 811.06 358.58, 808.60 358.60, 804.23 358.35 C 799.87 358.10, 797.63 357.81, 793.87 357.01 C 790.10 356.21, 788.26 355.45, 785.41 354.36 C 782.57 353.27, 781.80 352.51, 779.65 351.57 C 777.50 350.63, 776.29 349.44, 774.66 349.67 C 773.04 349.91, 771.54 350.86, 771.51 352.74 C 771.49 354.62, 772.35 357.06, 774.55 359.07 C 776.74 361.09, 778.89 361.69, 782.49 362.83 C 786.09 363.97, 788.28 364.20, 792.57 364.76 C 796.86 365.31, 799.22 365.49, 803.94 365.61 C 808.66 365.72, 811.22 365.67, 816.16 365.32 C 821.10 364.97, 823.74 364.74, 828.64 363.84 C 833.54 362.95, 836.08 362.34, 840.66 360.84 C 845.25 359.35, 847.53 358.47, 851.57 356.39 C 855.60 354.31, 857.60 353.19, 860.86 350.44 C 864.12 347.70, 865.67 346.06, 867.88 342.67 C 870.08 339.28, 870.98 337.29, 871.87 333.50 C 872.76 329.71, 872.87 327.57, 872.35 323.70 C 871.82 319.83, 871.12 317.74, 869.26 314.15 C 867.40 310.56, 866.05 308.80, 863.05 305.73 C 860.06 302.66, 858.20 301.24, 854.30 298.81 C 850.40 296.38, 848.12 295.25, 843.53 293.58 C 838.95 291.91, 836.38 291.27, 831.37 290.44 C 826.36 289.61, 823.63 289.49, 818.49 289.43 C 813.36 289.38, 810.69 289.57, 805.68 290.17 C 800.68 290.77, 798.08 291.17, 793.47 292.45 C 788.85 293.73, 786.37 294.80, 782.59 296.55 C 778.81 298.31, 776.66 299.08, 774.57 301.22 C 772.48 303.36, 771.99 305.30, 772.15 307.23 C 772.30 309.17, 773.59 310.36, 775.35 310.89" style="stroke: black; fill: black;"/><path d="M 889.60,245.87 C 888.09 246.67, 887.57 247.73, 886.87 249.84 C 886.18 251.94, 886.01 253.23, 886.14 256.39 C 886.26 259.55, 887.01 261.63, 887.51 265.64 C 888.02 269.65, 888.26 271.87, 888.66 276.46 C 889.05 281.05, 889.17 283.56, 889.49 288.57 C 889.81 293.58, 889.92 296.27, 890.28 301.51 C 890.63 306.74, 890.74 309.50, 891.26 314.75 C 891.78 320.00, 892.10 322.67, 892.88 327.76 C 893.66 332.85, 894.10 335.44, 895.15 340.18 C 896.20 344.92, 896.75 347.22, 898.14 351.47 C 899.52 355.72, 900.27 357.75, 902.07 361.42 C 903.88 365.10, 904.82 366.91, 907.16 369.84 C 909.49 372.78, 910.81 374.13, 913.75 376.09 C 916.69 378.06, 918.41 378.89, 921.84 379.66 C 925.27 380.42, 927.21 380.41, 930.89 379.92 C 934.57 379.43, 936.49 378.75, 940.23 377.19 C 943.96 375.63, 945.84 374.49, 949.57 372.12 C 953.30 369.75, 955.21 368.30, 958.88 365.33 C 962.56 362.36, 964.53 360.69, 967.94 357.26 C 971.36 353.83, 973.00 351.87, 975.97 348.18 C 978.94 344.49, 980.40 342.56, 982.79 338.80 C 985.18 335.03, 986.27 333.07, 987.92 329.35 C 989.57 325.63, 990.31 323.79, 991.04 320.21 C 991.78 316.62, 992.04 314.74, 991.59 311.43 C 991.15 308.11, 990.46 306.39, 988.82 303.63 C 987.18 300.87, 985.99 299.51, 983.40 297.63 C 980.81 295.75, 979.10 294.95, 975.87 294.23 C 972.64 293.51, 970.66 293.42, 967.25 294.03 C 963.84 294.64, 962.03 295.47, 958.84 297.29 C 955.64 299.10, 954.04 300.37, 951.28 303.09 C 948.52 305.80, 947.15 307.47, 945.03 310.87 C 942.90 314.28, 941.92 316.20, 940.66 320.10 C 939.40 324.01, 938.86 326.20, 938.72 330.40 C 938.58 334.61, 938.76 336.93, 939.95 341.11 C 941.15 345.29, 942.14 347.47, 944.70 351.30 C 947.25 355.13, 948.91 357.01, 952.73 360.26 C 956.55 363.50, 958.92 365.01, 963.80 367.53 C 968.68 370.05, 971.49 371.14, 977.14 372.86 C 982.78 374.59, 985.97 375.22, 992.01 376.14 C 998.05 377.06, 1001.35 377.31, 1007.36 377.44 C 1013.37 377.58, 1016.47 377.39, 1022.06 376.79 C 1027.64 376.20, 1030.41 375.76, 1035.28 374.48 C 1040.15 373.19, 1042.46 372.38, 1046.40 370.36 C 1050.34 368.34, 1052.19 367.16, 1055.01 364.37 C 1057.82 361.58, 1058.96 359.84, 1060.47 356.39 C 1061.98 352.94, 1062.29 350.84, 1062.55 347.13 C 1062.80 343.42, 1062.43 341.45, 1061.74 337.84 C 1061.05 334.24, 1060.32 332.45, 1059.10 329.10 C 1057.88 325.75, 1057.10 323.99, 1055.65 321.10 C 1054.19 318.21, 1053.30 316.83, 1051.83 314.66 C 1050.35 312.48, 1049.57 311.50, 1048.27 310.22 C 1046.96 308.94, 1046.26 308.36, 1045.30 308.28 C 1044.34 308.19, 1043.65 308.93, 1043.48 309.81 C 1043.31 310.70, 1043.48 311.85, 1044.47 312.70 C 1045.47 313.55, 1046.30 314.01, 1048.44 314.08 C 1050.57 314.15, 1051.95 313.51, 1055.14 313.05 C 1058.34 312.60, 1060.33 312.13, 1064.41 311.80 C 1068.49 311.48, 1070.89 311.42, 1075.54 311.43 C 1080.19 311.45, 1082.76 311.55, 1087.64 311.88 C 1092.52 312.22, 1095.48 312.66, 1099.95 313.12 C 1104.43 313.57, 1106.65 314.21, 1110.02 314.14 C 1113.39 314.08, 1115.38 313.85, 1116.81 312.79 C 1118.24 311.72, 1118.37 310.13, 1117.16 308.83 C 1115.95 307.53, 1114.06 306.97, 1110.75 306.28 C 1107.45 305.59, 1105.16 305.73, 1100.64 305.38 C 1096.12 305.03, 1093.11 304.87, 1088.16 304.52 C 1083.20 304.17, 1080.58 304.00, 1075.87 303.62 C 1071.16 303.24, 1068.75 303.10, 1064.60 302.61 C 1060.46 302.11, 1058.52 301.60, 1055.14 301.15 C 1051.76 300.69, 1050.24 300.03, 1047.72 300.34 C 1045.20 300.66, 1044.17 301.36, 1042.55 302.71 C 1040.93 304.07, 1040.43 305.31, 1039.62 307.13 C 1038.81 308.94, 1038.49 310.00, 1038.49 311.78 C 1038.50 313.57, 1038.87 314.27, 1039.64 316.07 C 1040.42 317.86, 1041.12 318.71, 1042.38 320.76 C 1043.64 322.82, 1044.52 323.91, 1045.94 326.34 C 1047.35 328.77, 1048.28 330.19, 1049.46 332.91 C 1050.63 335.63, 1051.18 337.16, 1051.83 339.93 C 1052.48 342.70, 1052.71 344.13, 1052.71 346.75 C 1052.72 349.38, 1052.64 350.66, 1051.88 353.05 C 1051.12 355.44, 1050.73 356.53, 1048.92 358.70 C 1047.11 360.88, 1045.91 362.03, 1042.82 363.93 C 1039.73 365.83, 1037.75 366.82, 1033.46 368.20 C 1029.16 369.58, 1026.54 370.13, 1021.34 370.83 C 1016.14 371.52, 1013.15 371.76, 1007.46 371.67 C 1001.78 371.58, 998.61 371.32, 992.91 370.39 C 987.22 369.47, 984.19 368.78, 978.99 367.05 C 973.79 365.31, 971.23 364.16, 966.93 361.73 C 962.64 359.29, 960.65 357.79, 957.53 354.86 C 954.41 351.94, 953.21 350.27, 951.32 347.09 C 949.43 343.91, 948.84 342.21, 948.07 338.97 C 947.31 335.72, 947.26 334.04, 947.51 330.87 C 947.76 327.70, 948.21 326.04, 949.32 323.11 C 950.43 320.17, 951.28 318.68, 953.06 316.19 C 954.83 313.70, 956.04 312.47, 958.21 310.66 C 960.39 308.85, 961.72 308.16, 963.95 307.16 C 966.18 306.16, 967.38 306.05, 969.37 305.68 C 971.36 305.31, 972.29 305.16, 973.91 305.30 C 975.53 305.44, 976.25 305.66, 977.49 306.37 C 978.73 307.08, 979.31 307.54, 980.11 308.85 C 980.91 310.15, 981.14 310.93, 981.47 312.91 C 981.80 314.88, 982.02 316.05, 981.75 318.72 C 981.49 321.40, 981.25 323.04, 980.15 326.26 C 979.04 329.48, 978.21 331.35, 976.22 334.82 C 974.23 338.29, 972.90 340.16, 970.21 343.60 C 967.52 347.04, 965.97 348.88, 962.75 352.00 C 959.54 355.12, 957.63 356.63, 954.14 359.20 C 950.65 361.77, 948.72 363.00, 945.29 364.85 C 941.85 366.70, 940.06 367.46, 936.95 368.47 C 933.85 369.48, 932.33 369.68, 929.75 369.90 C 927.17 370.12, 926.18 370.00, 924.04 369.56 C 921.89 369.11, 921.03 368.80, 919.02 367.67 C 917.02 366.54, 915.98 365.92, 914.02 363.90 C 912.06 361.88, 911.01 360.54, 909.22 357.56 C 907.43 354.58, 906.55 352.79, 905.07 348.99 C 903.58 345.20, 902.94 343.04, 901.80 338.59 C 900.65 334.14, 900.15 331.62, 899.32 326.73 C 898.50 321.83, 898.17 319.24, 897.68 314.12 C 897.19 309.00, 897.11 306.30, 896.87 301.14 C 896.64 295.97, 896.57 293.29, 896.51 288.30 C 896.45 283.32, 896.47 280.81, 896.58 276.22 C 896.70 271.64, 896.82 269.38, 897.10 265.38 C 897.39 261.37, 897.98 259.30, 898.00 256.18 C 898.02 253.06, 897.91 251.84, 897.19 249.77 C 896.48 247.70, 895.93 246.62, 894.41 245.84 C 892.89 245.06, 891.11 245.07, 889.60 245.87" style="stroke: black; fill: black;"/></svg>